<svg width="600" height="500" xmlns="http://www.w3.org/2000/svg">
  <!-- 背景 -->
  <rect width="600" height="500" fill="#f8f9fa" stroke="#e9ecef" stroke-width="1"/>
  
  <!-- タイトル -->
  <text x="300" y="25" text-anchor="middle" font-family="Arial, sans-serif" font-size="16" font-weight="bold">グラフ構造と隣接行列</text>
  
  <!-- グラフ部分 -->
  <g transform="translate(50, 50)">
    <text x="125" y="20" text-anchor="middle" font-family="Arial, sans-serif" font-size="14" font-weight="bold">図1: グラフの例</text>
    
    <!-- 頂点 -->
    <circle cx="50" cy="100" r="20" fill="#e3f2fd" stroke="#1976d2" stroke-width="3"/>
    <text x="50" y="105" text-anchor="middle" font-family="Arial, sans-serif" font-size="16" font-weight="bold">1</text>
    
    <circle cx="125" cy="150" r="20" fill="#e3f2fd" stroke="#1976d2" stroke-width="3"/>
    <text x="125" y="155" text-anchor="middle" font-family="Arial, sans-serif" font-size="16" font-weight="bold">2</text>
    
    <circle cx="50" cy="50" r="20" fill="#e3f2fd" stroke="#1976d2" stroke-width="3"/>
    <text x="50" y="55" text-anchor="middle" font-family="Arial, sans-serif" font-size="16" font-weight="bold">3</text>
    
    <circle cx="125" cy="100" r="20" fill="#e3f2fd" stroke="#1976d2" stroke-width="3"/>
    <text x="125" y="105" text-anchor="middle" font-family="Arial, sans-serif" font-size="16" font-weight="bold">4</text>
    
    <circle cx="200" cy="100" r="20" fill="#e3f2fd" stroke="#1976d2" stroke-width="3"/>
    <text x="200" y="105" text-anchor="middle" font-family="Arial, sans-serif" font-size="16" font-weight="bold">5</text>
    
    <!-- 辺 -->
    <line x1="70" y1="100" x2="105" y2="100" stroke="#333" stroke-width="3"/>  <!-- 1-4 -->
    <line x1="60" y1="70" x2="115" y2="90" stroke="#333" stroke-width="3"/>    <!-- 3-4 -->
    <line x1="40" y1="70" x2="40" y2="80" stroke="#333" stroke-width="3"/>    <!-- 1-3 -->
    <line x1="125" y1="130" x2="125" y2="120" stroke="#333" stroke-width="3"/>  <!-- 2-4 -->
    <line x1="145" y1="100" x2="180" y2="100" stroke="#333" stroke-width="3"/>  <!-- 4-5 -->
  </g>
  
  <!-- 辺の配列 -->
  <g transform="translate(50, 220)">
    <text x="0" y="0" font-family="Arial, sans-serif" font-size="14" font-weight="bold">辺の配列:</text>
    <text x="0" y="20" font-family="Arial, sans-serif" font-size="14">{{1, 3}, {1, 4}, {3, 4}, {2, 4}, {4, 5}}</text>
  </g>
  
  <!-- 隣接行列 -->
  <g transform="translate(320, 80)">
    <text x="70" y="0" text-anchor="middle" font-family="Arial, sans-serif" font-size="14" font-weight="bold">図2: 隣接行列</text>
    
    <!-- ヘッダー行 -->
    <rect x="20" y="20" width="30" height="30" fill="#f5f5f5" stroke="#333" stroke-width="1"/>
    <text x="35" y="40" text-anchor="middle" font-family="Arial, sans-serif" font-size="12" font-weight="bold"></text>
    
    <rect x="50" y="20" width="30" height="30" fill="#e8f5e8" stroke="#333" stroke-width="1"/>
    <text x="65" y="40" text-anchor="middle" font-family="Arial, sans-serif" font-size="12" font-weight="bold">1</text>
    
    <rect x="80" y="20" width="30" height="30" fill="#e8f5e8" stroke="#333" stroke-width="1"/>
    <text x="95" y="40" text-anchor="middle" font-family="Arial, sans-serif" font-size="12" font-weight="bold">2</text>
    
    <rect x="110" y="20" width="30" height="30" fill="#e8f5e8" stroke="#333" stroke-width="1"/>
    <text x="125" y="40" text-anchor="middle" font-family="Arial, sans-serif" font-size="12" font-weight="bold">3</text>
    
    <rect x="140" y="20" width="30" height="30" fill="#e8f5e8" stroke="#333" stroke-width="1"/>
    <text x="155" y="40" text-anchor="middle" font-family="Arial, sans-serif" font-size="12" font-weight="bold">4</text>
    
    <rect x="170" y="20" width="30" height="30" fill="#e8f5e8" stroke="#333" stroke-width="1"/>
    <text x="185" y="40" text-anchor="middle" font-family="Arial, sans-serif" font-size="12" font-weight="bold">5</text>
    
    <!-- 行1 -->
    <rect x="20" y="50" width="30" height="30" fill="#e8f5e8" stroke="#333" stroke-width="1"/>
    <text x="35" y="70" text-anchor="middle" font-family="Arial, sans-serif" font-size="12" font-weight="bold">1</text>
    
    <rect x="50" y="50" width="30" height="30" fill="white" stroke="#333" stroke-width="1"/>
    <text x="65" y="70" text-anchor="middle" font-family="Arial, sans-serif" font-size="12">0</text>
    
    <rect x="80" y="50" width="30" height="30" fill="white" stroke="#333" stroke-width="1"/>
    <text x="95" y="70" text-anchor="middle" font-family="Arial, sans-serif" font-size="12">0</text>
    
    <rect x="110" y="50" width="30" height="30" fill="#ffecb3" stroke="#333" stroke-width="1"/>
    <text x="125" y="70" text-anchor="middle" font-family="Arial, sans-serif" font-size="12" font-weight="bold">1</text>
    
    <rect x="140" y="50" width="30" height="30" fill="#ffecb3" stroke="#333" stroke-width="1"/>
    <text x="155" y="70" text-anchor="middle" font-family="Arial, sans-serif" font-size="12" font-weight="bold">1</text>
    
    <rect x="170" y="50" width="30" height="30" fill="white" stroke="#333" stroke-width="1"/>
    <text x="185" y="70" text-anchor="middle" font-family="Arial, sans-serif" font-size="12">0</text>
    
    <!-- 行2 -->
    <rect x="20" y="80" width="30" height="30" fill="#e8f5e8" stroke="#333" stroke-width="1"/>
    <text x="35" y="100" text-anchor="middle" font-family="Arial, sans-serif" font-size="12" font-weight="bold">2</text>
    
    <rect x="50" y="80" width="30" height="30" fill="white" stroke="#333" stroke-width="1"/>
    <text x="65" y="100" text-anchor="middle" font-family="Arial, sans-serif" font-size="12">0</text>
    
    <rect x="80" y="80" width="30" height="30" fill="white" stroke="#333" stroke-width="1"/>
    <text x="95" y="100" text-anchor="middle" font-family="Arial, sans-serif" font-size="12">0</text>
    
    <rect x="110" y="80" width="30" height="30" fill="white" stroke="#333" stroke-width="1"/>
    <text x="125" y="100" text-anchor="middle" font-family="Arial, sans-serif" font-size="12">0</text>
    
    <rect x="140" y="80" width="30" height="30" fill="#ffecb3" stroke="#333" stroke-width="1"/>
    <text x="155" y="100" text-anchor="middle" font-family="Arial, sans-serif" font-size="12" font-weight="bold">1</text>
    
    <rect x="170" y="80" width="30" height="30" fill="white" stroke="#333" stroke-width="1"/>
    <text x="185" y="100" text-anchor="middle" font-family="Arial, sans-serif" font-size="12">0</text>
    
    <!-- 行3 -->
    <rect x="20" y="110" width="30" height="30" fill="#e8f5e8" stroke="#333" stroke-width="1"/>
    <text x="35" y="130" text-anchor="middle" font-family="Arial, sans-serif" font-size="12" font-weight="bold">3</text>
    
    <rect x="50" y="110" width="30" height="30" fill="#ffecb3" stroke="#333" stroke-width="1"/>
    <text x="65" y="130" text-anchor="middle" font-family="Arial, sans-serif" font-size="12" font-weight="bold">1</text>
    
    <rect x="80" y="110" width="30" height="30" fill="white" stroke="#333" stroke-width="1"/>
    <text x="95" y="130" text-anchor="middle" font-family="Arial, sans-serif" font-size="12">0</text>
    
    <rect x="110" y="110" width="30" height="30" fill="white" stroke="#333" stroke-width="1"/>
    <text x="125" y="130" text-anchor="middle" font-family="Arial, sans-serif" font-size="12">0</text>
    
    <rect x="140" y="110" width="30" height="30" fill="#ffecb3" stroke="#333" stroke-width="1"/>
    <text x="155" y="130" text-anchor="middle" font-family="Arial, sans-serif" font-size="12" font-weight="bold">1</text>
    
    <rect x="170" y="110" width="30" height="30" fill="white" stroke="#333" stroke-width="1"/>
    <text x="185" y="130" text-anchor="middle" font-family="Arial, sans-serif" font-size="12">0</text>
    
    <!-- 行4 -->
    <rect x="20" y="140" width="30" height="30" fill="#e8f5e8" stroke="#333" stroke-width="1"/>
    <text x="35" y="160" text-anchor="middle" font-family="Arial, sans-serif" font-size="12" font-weight="bold">4</text>
    
    <rect x="50" y="140" width="30" height="30" fill="#ffecb3" stroke="#333" stroke-width="1"/>
    <text x="65" y="160" text-anchor="middle" font-family="Arial, sans-serif" font-size="12" font-weight="bold">1</text>
    
    <rect x="80" y="140" width="30" height="30" fill="#ffecb3" stroke="#333" stroke-width="1"/>
    <text x="95" y="160" text-anchor="middle" font-family="Arial, sans-serif" font-size="12" font-weight="bold">1</text>
    
    <rect x="110" y="140" width="30" height="30" fill="#ffecb3" stroke="#333" stroke-width="1"/>
    <text x="125" y="160" text-anchor="middle" font-family="Arial, sans-serif" font-size="12" font-weight="bold">1</text>
    
    <rect x="140" y="140" width="30" height="30" fill="white" stroke="#333" stroke-width="1"/>
    <text x="155" y="160" text-anchor="middle" font-family="Arial, sans-serif" font-size="12">0</text>
    
    <rect x="170" y="140" width="30" height="30" fill="#ffecb3" stroke="#333" stroke-width="1"/>
    <text x="185" y="160" text-anchor="middle" font-family="Arial, sans-serif" font-size="12" font-weight="bold">1</text>
    
    <!-- 行5 -->
    <rect x="20" y="170" width="30" height="30" fill="#e8f5e8" stroke="#333" stroke-width="1"/>
    <text x="35" y="190" text-anchor="middle" font-family="Arial, sans-serif" font-size="12" font-weight="bold">5</text>
    
    <rect x="50" y="170" width="30" height="30" fill="white" stroke="#333" stroke-width="1"/>
    <text x="65" y="190" text-anchor="middle" font-family="Arial, sans-serif" font-size="12">0</text>
    
    <rect x="80" y="170" width="30" height="30" fill="white" stroke="#333" stroke-width="1"/>
    <text x="95" y="190" text-anchor="middle" font-family="Arial, sans-serif" font-size="12">0</text>
    
    <rect x="110" y="170" width="30" height="30" fill="white" stroke="#333" stroke-width="1"/>
    <text x="125" y="190" text-anchor="middle" font-family="Arial, sans-serif" font-size="12">0</text>
    
    <rect x="140" y="170" width="30" height="30" fill="#ffecb3" stroke="#333" stroke-width="1"/>
    <text x="155" y="190" text-anchor="middle" font-family="Arial, sans-serif" font-size="12" font-weight="bold">1</text>
    
    <rect x="170" y="170" width="30" height="30" fill="white" stroke="#333" stroke-width="1"/>
    <text x="185" y="190" text-anchor="middle" font-family="Arial, sans-serif" font-size="12">0</text>
  </g>
  
  <!-- 説明 -->
  <text x="50" y="450" font-family="Arial, sans-serif" font-size="12" fill="#666">無向グラフでは、隣接行列は対称になります。黄色のセルは辺が存在することを示しています。</text>
</svg>